<?xml version="1.0" encoding="utf-8"?>
<!-- Generator: Adobe Illustrator 15.0.2, SVG Export Plug-In . SVG Version: 6.00 Build 0)  -->
<!DOCTYPE svg PUBLIC "-//W3C//DTD SVG 1.1//EN" "http://www.w3.org/Graphics/SVG/1.1/DTD/svg11.dtd">
<svg version="1.1" id="Layer_1" xmlns="http://www.w3.org/2000/svg" xmlns:xlink="http://www.w3.org/1999/xlink" x="0px" y="0px"
	 width="500px" height="500px" viewBox="0 0 500 500" enable-background="new 0 0 500 500" xml:space="preserve">
<polygon fill="#E8E4E4" points="0,56.649 49.03,92.277 30.307,149.927 79.346,114.291 128.392,149.927 109.655,92.277 
	158.692,56.649 98.076,56.649 79.346,-1 60.607,56.649 "/>
<polygon fill="#E8E4E4" points="341.311,56.649 390.341,92.277 371.626,149.927 420.656,114.291 469.701,149.927 450.973,92.277 
	500,56.649 439.386,56.649 420.656,-1 401.915,56.649 "/>
<polygon fill="#E8E4E4" points="170.653,232.182 219.691,267.818 200.97,325.459 249.999,289.822 299.054,325.459 280.315,267.818 
	329.347,232.182 268.737,232.182 249.999,174.541 231.269,232.182 "/>
<polygon fill="#E8E4E4" points="0,406.732 49.03,442.349 30.307,500 79.346,464.366 128.392,500 109.655,442.349 158.692,406.732 
	98.076,406.732 79.346,349.082 60.607,406.732 "/>
</svg>
